Coordinates
version=1
nRows=21
nColumns=22
inDegrees=yes

Units are S.I. units (second, meters, Newtons, ...)
If the header above contains a line with 'inDegrees', this indicates whether rotational values are in degrees (yes) or radians (no).

endheader
time	pelvis_tilt	pelvis_list	pelvis_rotation	pelvis_tx	pelvis_ty	pelvis_tz	hip_flexion_r	hip_adduction_r	hip_rotation_r	knee_angle_r	ankle_angle_r	subtalar_angle_r	hip_flexion_l	hip_adduction_l	hip_rotation_l	knee_angle_l	ankle_angle_l	subtalar_angle_l	lumbar_extension	lumbar_bending	lumbar_rotation
      2.69000000	      0.42851776	     -0.06385811	      0.25029695	      0.40799926	      0.91287934	      0.10898654	     -1.81557424	     -1.42117271	     -0.84867912	    -47.71546943	     -1.93288220	     15.54586825	     17.96562977	      1.45771550	     -6.01940584	    -26.27824517	      5.80836279	     -4.40267609	     -6.96601863	     -4.19472379	      1.53308348
      2.70000000	      0.24952148	     -0.16313155	     -0.13127425	      0.39908700	      0.91138500	      0.11091733	     -2.38220392	     -1.07129259	     -0.27394530	    -46.37024515	     -1.92212929	     15.62377523	     18.94383700	      1.11156461	     -6.38430071	    -26.62715318	      5.42597030	     -4.39849102	     -6.89932148	     -4.21185535	      2.30650673
      2.71000000	      0.06145679	     -0.27373631	     -0.57792715	      0.38986281	      0.90982108	      0.11303647	     -2.84535821	     -0.70414901	      0.37806776	    -44.96435590	     -1.75288428	     15.60508815	     19.92485256	      0.72486620	     -6.76231900	    -26.93797914	      5.02483359	     -4.41857227	     -6.85320696	     -4.22474882	      3.11732832
      2.72000000	     -0.11839257	     -0.37997557	     -1.06740426	      0.38035742	      0.90822061	      0.11529847	     -3.23465046	     -0.34660411	      1.05090597	    -43.50293686	     -1.38892420	     15.45801121	     20.88043995	      0.31890826	     -7.14899457	    -27.19277339	      4.59088765	     -4.45850026	     -6.84378909	     -4.24703342	      3.92154111
      2.73000000	     -0.27916903	     -0.47213603	     -1.57941966	      0.37059450	      0.90659476	      0.11766008	     -3.56584259	     -0.01427775	      1.69617529	    -42.00868673	     -0.79994180	     15.14660394	     21.79509809	     -0.09096465	     -7.53743696	    -27.38489826	      4.11951016	     -4.51169926	     -6.87917483	     -4.28547036	      4.70213769
      2.74000000	     -0.43536034	     -0.53772296	     -2.10077008	      0.36057914	      0.90492396	      0.12009475	     -3.81601066	      0.28402970	      2.29058132	    -40.53205329	      0.01944549	     14.52050019	     22.67574408	     -0.48053311	     -7.88295269	    -27.49284263	      3.60981508	     -4.58427638	     -6.93821137	     -4.35545147	      5.43865575
      2.75000000	     -0.53266112	     -0.56538676	     -2.57843111	      0.35033176	      0.90325089	      0.12248622	     -4.03714760	      0.51161788	      2.68132786	    -39.13657221	      1.13623372	     13.62657582	     23.48424521	     -0.82846042	     -8.21274745	    -27.54193190	      3.00050913	     -4.63923402	     -7.08954223	     -4.46432747	      6.09762326
      2.76000000	     -0.58458972	     -0.55774803	     -3.02169981	      0.33986393	      0.90158005	      0.12482435	     -4.20585628	      0.69238198	      2.94209340	    -37.87152535	      2.51622692	     12.58028938	     24.22305248	     -1.13450764	     -8.51730869	    -27.51044775	      2.33270395	     -4.65235036	     -7.31037857	     -4.60286776	      6.67099673
      2.77000000	     -0.59901689	     -0.53018137	     -3.41170700	      0.32917725	      0.89990984	      0.12707569	     -4.29660558	      0.84244479	      3.02917798	    -36.79634849	      4.13543477	     11.36509127	     24.90340054	     -1.40716018	     -8.77568672	    -27.39374324	      1.58335776	     -4.61078838	     -7.59303405	     -4.75466264	      7.16254850
      2.78000000	     -0.57775965	     -0.47603009	     -3.75203720	      0.31830856	      0.89826482	      0.12920585	     -4.29811459	      0.95547665	      2.96033079	    -35.93805756	      5.97423632	     10.07444454	     25.51104552	     -1.63465809	     -8.98572908	    -27.16035542	      0.76530701	     -4.48942793	     -7.92790187	     -4.92144586	      7.58203207
      2.79000000	     -0.49634820	     -0.46035687	     -3.96440375	      0.30731984	      0.89672412	      0.13112259	     -4.28756361	      1.11657327	      2.71296673	    -35.20671305	      7.87953522	      8.60930981	     26.05011249	     -1.85657167	     -9.08641469	    -26.86090690	     -0.17291708	     -4.25718471	     -8.34880119	     -5.02207517	      7.82568308
      2.80000000	     -0.36529256	     -0.44121114	     -4.11262299	      0.29626356	      0.89531364	      0.13287118	     -4.22956455	      1.27039259	      2.35936436	    -34.63450125	      9.82844676	      7.17651633	     26.48403934	     -2.04370818	     -9.12037912	    -26.41713405	     -1.19217576	     -3.87309472	     -8.82977317	     -5.10700688	      8.00711672
      2.81000000	     -0.17931196	     -0.43142939	     -4.16917457	      0.28523047	      0.89409170	      0.13441156	     -4.16763174	      1.43814509	      1.93089046	    -34.14772411	     11.71647237	      5.77782331	     26.80583129	     -2.19502369	     -9.05712332	    -25.83483024	     -2.30195948	     -3.30093612	     -9.36692469	     -5.15792434	      8.09099146
      2.82000000	      0.05752023	     -0.42381218	     -4.13077736	      0.27427689	      0.89309509	      0.13572671	     -4.11276965	      1.61207049	      1.45707187	    -33.71473809	     13.47715225	      4.45209360	     27.01190818	     -2.29576635	     -8.87532275	    -25.10974893	     -3.50538283	     -2.51619725	     -9.94852064	     -5.18192284	      8.08555909
      2.83000000	      0.33410928	     -0.42576202	     -3.99583938	      0.26348681	      0.89234752	      0.13681208	     -4.08946322	      1.80241241	      0.97561249	    -33.27208968	     15.05106138	      3.21000935	     27.12029401	     -2.35972235	     -8.60930622	    -24.27939979	     -4.77486946	     -1.49284387	    -10.55054655	     -5.16460631	      7.99640357
      2.84000000	      0.63273014	     -0.42008557	     -3.78106025	      0.25284633	      0.89183883	      0.13769429	     -4.05600651	      1.98224333	      0.47518019	    -32.85815996	     16.41813599	      2.09052827	     27.14623430	     -2.36828379	     -8.22490843	    -23.35878482	     -6.09594944	     -0.24793108	    -11.15239053	     -5.13283360	      7.84884469
      2.85000000	      0.93091031	     -0.41756696	     -3.49116846	      0.24240100	      0.89154757	      0.13839625	     -4.01345997	      2.16162306	     -0.04481790	    -32.42947438	     17.56377110	      1.07249451	     27.14297198	     -2.34945741	     -7.79571921	    -22.44663982	     -7.42425668	      1.23540777	    -11.71766696	     -5.07084006	      7.65725002
      2.86000000	      1.20650703	     -0.41736999	     -3.15090354	      0.23212089	      0.89142874	      0.13898487	     -3.91228862	      2.33054449	     -0.60978299	    -32.03928654	     18.51139570	      0.15393811	     27.14462569	     -2.31063790	     -7.31208762	    -21.60526361	     -8.67734969	      2.89347385	    -12.22783841	     -4.99327519	      7.45445052
      2.87000000	      1.45834261	     -0.42413887	     -2.76955123	      0.22202397	      0.89145986	      0.13946794	     -3.75073422	      2.49395047	     -1.20889505	    -31.69810342	     19.29171295	     -0.72548201	     27.18467816	     -2.26514099	     -6.83714481	    -20.95082328	     -9.76906907	      4.67667490	    -12.67579681	     -4.89383123	      7.25059549
      2.88000000	      1.68943614	     -0.42501393	     -2.34945628	      0.21218120	      0.89164640	      0.13984931	     -3.54773291	      2.63965542	     -1.83262674	    -31.38780785	     19.93230413	     -1.60473989	     27.27360060	     -2.20044386	     -6.40266448	    -20.57230489	    -10.62536828	      6.47868628	    -13.05611254	     -4.79283363	      7.05477194
      2.89000000	      1.92290187	     -0.41376882	     -1.89991200	      0.20257476	      0.89199749	      0.14011455	     -3.31291619	      2.76363505	     -2.44598973	    -31.14716896	     20.45161125	     -2.47224261	     27.40632954	     -2.10907870	     -6.03103392	    -20.55617793	    -11.16705968	      8.13759222	    -13.40441586	     -4.69709110	      6.86500601
